<svg width="20" height="22" viewBox="0 0 20 22" fill="none" xmlns="http://www.w3.org/2000/svg">
<path d="M10 21.5C8.95 21.5 8.0625 21.1375 7.3375 20.4125C6.6125 19.6875 6.25 18.8 6.25 17.75C6.25 16.8833 6.50833 16.1208 7.025 15.4625C7.54167 14.8042 8.2 14.3583 9 14.125V12H3V8H0.5V1H7.5V8H5V10H15V7.875C14.2 7.64167 13.5417 7.19583 13.025 6.5375C12.5083 5.87917 12.25 5.11667 12.25 4.25C12.25 3.2 12.6125 2.3125 13.3375 1.5875C14.0625 0.8625 14.95 0.5 16 0.5C17.05 0.5 17.9375 0.8625 18.6625 1.5875C19.3875 2.3125 19.75 3.2 19.75 4.25C19.75 5.11667 19.4917 5.87917 18.975 6.5375C18.4583 7.19583 17.8 7.64167 17 7.875V12H11V14.125C11.8 14.3583 12.4583 14.8042 12.975 15.4625C13.4917 16.1208 13.75 16.8833 13.75 17.75C13.75 18.8 13.3875 19.6875 12.6625 20.4125C11.9375 21.1375 11.05 21.5 10 21.5ZM16 6C16.4833 6 16.8958 5.82917 17.2375 5.4875C17.5792 5.14583 17.75 4.73333 17.75 4.25C17.75 3.76667 17.5792 3.35417 17.2375 3.0125C16.8958 2.67083 16.4833 2.5 16 2.5C15.5167 2.5 15.1042 2.67083 14.7625 3.0125C14.4208 3.35417 14.25 3.76667 14.25 4.25C14.25 4.73333 14.4208 5.14583 14.7625 5.4875C15.1042 5.82917 15.5167 6 16 6ZM2.5 6H5.5V3H2.5V6ZM10 19.5C10.4833 19.5 10.8958 19.3292 11.2375 18.9875C11.5792 18.6458 11.75 18.2333 11.75 17.75C11.75 17.2667 11.5792 16.8542 11.2375 16.5125C10.8958 16.1708 10.4833 16 10 16C9.51667 16 9.10417 16.1708 8.7625 16.5125C8.42083 16.8542 8.25 17.2667 8.25 17.75C8.25 18.2333 8.42083 18.6458 8.7625 18.9875C9.10417 19.3292 9.51667 19.5 10 19.5Z" fill="#4B4B4B"/>
</svg>
