<svg width="70" height="23" viewBox="0 0 70 23" fill="none" xmlns="http://www.w3.org/2000/svg">
<path d="M5.07915 9.30957L3.32842 17.643H0.807373L2.5581 9.30957H5.07915Z" fill="white"/>
<path d="M7.10936 11.2719C7.24942 10.5716 7.38948 9.80129 7.45951 9.31108H9.91053C9.8405 9.80129 9.77047 10.2215 9.70044 10.7117C10.6808 9.52117 12.0814 8.96094 13.6221 8.96094C15.0927 8.96094 17.2636 9.80129 16.7034 12.4624L15.5829 17.5745H13.0618L14.0422 13.1627C14.4624 11.1318 13.6221 10.6416 12.4316 10.6416C10.7509 10.7117 9.42032 11.9722 9.21024 13.5829L8.36989 17.5745H5.77881L7.10936 11.2719Z" fill="white"/>
<path d="M19.4353 11.2719C19.5753 10.5716 19.7154 9.80129 19.7854 9.31108H22.2364C22.1664 9.80129 22.0964 10.2215 22.0263 10.7117C23.0067 9.52117 24.4073 8.96094 25.8779 8.96094C27.3485 8.96094 29.5195 9.80129 28.9592 12.4624L27.8387 17.5745H25.3177L26.2281 13.1627C26.6483 11.1318 25.8079 10.6416 24.6174 10.6416C22.9367 10.7117 21.6062 11.9722 21.3961 13.5829L20.5557 17.5745H18.0347L19.4353 11.2719Z" fill="white"/>
<path d="M41.5643 13.4428C41.0741 15.7538 39.3934 17.9247 35.1916 17.9247C30.9899 17.9247 30.2196 15.7538 30.7098 13.4428C31.2 11.1318 32.8807 8.96094 37.0824 8.96094C41.2842 8.96094 42.0545 11.1318 41.5643 13.4428ZM33.3008 13.4428C32.9507 15.0535 33.581 16.314 35.4717 16.314C37.1524 16.384 38.6231 15.1235 38.9032 13.4428C39.2533 11.8321 38.6231 10.5716 36.7323 10.5716C35.0516 10.5016 33.581 11.7621 33.3008 13.4428Z" fill="white"/>
<path d="M45.9766 9.30957L47.7274 15.7523L52.2792 9.30957H54.9404L48.7778 17.643H45.6265L43.0354 9.30957H45.9766Z" fill="white"/>
<path d="M64.2538 16.0339C64.1137 16.5941 64.0437 17.0143 63.9737 17.6446H61.6627C61.7328 17.2244 61.7328 16.8742 61.8728 16.5241C60.6823 17.5045 59.1417 18.0647 57.601 17.9947C54.6598 17.9947 53.9595 16.6641 54.2396 15.4036C54.7999 12.8125 57.391 12.3223 60.5423 12.3223H62.5731C62.8532 10.8517 61.9428 10.4315 60.6823 10.4315C59.4218 10.4315 58.6515 10.9218 58.3714 11.622H55.7803C56.4806 9.45114 58.9316 8.96094 61.0325 8.96094C63.3434 8.96094 65.6544 9.5912 65.0241 12.5324L64.2538 16.0339ZM60.1221 13.7929C58.2313 13.7929 57.0408 14.2131 56.8307 15.1935C56.6907 15.7538 57.0408 16.5241 58.4414 16.5241C59.7019 16.5241 61.7328 15.8238 62.1529 13.7929H60.1221Z" fill="white"/>
<path d="M4.37955 8.35937C5.30778 8.35937 6.06025 7.57554 6.06025 6.60864C6.06025 5.64174 5.30778 4.85791 4.37955 4.85791C3.45133 4.85791 2.69885 5.64174 2.69885 6.60864C2.69885 7.57554 3.45133 8.35937 4.37955 8.35937Z" fill="white"/>
<path d="M30.7288 16.7249C27.8576 19.386 27.8576 19.386 27.8576 19.386L31.4991 17.4251C31.219 17.2151 30.9389 17.005 30.7288 16.7249Z" fill="white"/>
<path d="M38.1992 5.85365C38.3392 6.83406 38.1992 7.81446 37.779 8.65481C39.5297 8.72484 40.6502 9.21505 41.2804 9.91534C44.4317 6.97411 46.5326 4.03289 45.2721 2.07208C44.2217 0.391376 40.7902 -0.168857 36.5885 0.531434C34.9778 0.81155 33.4372 1.09167 32.0366 1.37178C28.6052 2.21213 25.2438 3.19254 22.1625 4.24298C26.9245 3.19254 37.1487 1.44181 38.1992 5.85365Z" fill="white"/>
<path d="M29.9516 21.9841C30.0216 22.1942 30.1617 22.3343 30.5819 22.3343C31.002 22.3343 31.0721 22.1942 31.0721 22.0542C31.0721 21.9141 30.932 21.774 30.4418 21.704C29.6015 21.564 29.3914 21.2838 29.3914 21.0037C29.3914 20.5135 29.8816 20.2334 30.5118 20.2334C31.3522 20.2334 31.5623 20.6536 31.6323 20.9337H31.002C31.002 20.7936 30.862 20.6536 30.5118 20.6536C30.1617 20.6536 30.0216 20.7236 30.0216 20.9337C30.0216 21.0737 30.0917 21.1438 30.5819 21.2138C31.4923 21.3539 31.7023 21.634 31.7023 22.0542C31.7023 22.4743 31.3522 22.8245 30.5118 22.8245C29.7415 22.8245 29.3914 22.4743 29.3214 21.9841H29.9516Z" fill="white"/>
<path d="M36.184 21.4933C36.184 22.1935 35.6938 22.7538 34.9935 22.8238C34.9235 22.8238 34.9235 22.8238 34.8534 22.8238C34.1532 22.8238 33.5929 22.3336 33.5229 21.6333C33.5229 21.6333 33.5229 21.5633 33.5229 21.4933C33.5229 20.793 34.0831 20.2327 34.7834 20.2327H34.8534C35.5537 20.1627 36.114 20.7229 36.184 21.4232V21.4933ZM34.1532 21.4933C34.1532 21.9835 34.3632 22.3336 34.8534 22.3336C35.3436 22.3336 35.5537 21.9134 35.5537 21.4933C35.5537 21.0731 35.3436 20.6529 34.8534 20.6529C34.3632 20.7229 34.1532 21.0731 34.1532 21.4933Z" fill="white"/>
<path d="M38.2147 20.3032H38.8449V22.264H40.2455L40.1755 22.7542H38.2847V20.3032H38.2147Z" fill="white"/>
<path d="M42.5563 20.3032V21.7038C42.5563 22.194 42.8365 22.3341 43.1166 22.3341C43.4667 22.3341 43.6768 22.194 43.6768 21.7038V20.3032H44.3071V21.7038C44.3771 22.264 43.9569 22.7542 43.3967 22.8243C43.3267 22.8243 43.2566 22.8243 43.1166 22.8243C42.4163 22.8243 41.9261 22.4741 41.9261 21.7038V20.3032H42.5563Z" fill="white"/>
<path d="M46.9688 20.7934H46.1284V20.3032H48.4394V20.7934H47.599V22.7542H46.9688V20.7934Z" fill="white"/>
<path d="M50.9602 20.3032V22.7542H50.33V20.3032H50.9602Z" fill="white"/>
<path d="M55.5821 21.4935C55.5821 22.1938 55.0919 22.7541 54.3916 22.8241C54.3216 22.8241 54.3216 22.8241 54.2516 22.8241C53.5513 22.8941 52.991 22.3339 52.921 21.7036C52.921 21.6336 52.921 21.6336 52.921 21.5636C52.921 20.8633 53.4813 20.303 54.1815 20.303H54.2516C54.9519 20.233 55.5121 20.7932 55.5821 21.4935ZM53.5513 21.4935C53.5513 21.9837 53.7614 22.3339 54.2516 22.3339C54.7418 22.3339 54.9519 21.9137 54.9519 21.4935C54.9519 21.0734 54.7418 20.6532 54.2516 20.6532C53.7614 20.7232 53.5513 21.0734 53.5513 21.4935Z" fill="white"/>
<path d="M57.613 22.7542V20.3032H58.3133C59.0136 21.3537 59.2937 21.7738 59.4337 22.054C59.4337 21.7738 59.4337 21.3537 59.4337 20.9335V20.3032H59.994V22.7542H59.2937C59.0836 22.4041 58.2432 21.1436 58.1032 20.8635C58.1032 21.1436 58.1032 21.4937 58.1032 21.9839V22.7542H57.613Z" fill="white"/>
<path d="M62.4452 21.9838C62.5152 22.1939 62.7253 22.334 63.1455 22.334C63.4956 22.334 63.6357 22.264 63.6357 22.0539C63.6357 21.9138 63.4956 21.7738 63.0054 21.7037C62.165 21.5637 62.025 21.2836 62.025 20.9334C62.025 20.4432 62.5152 20.1631 63.0754 20.1631C63.9158 20.1631 64.1259 20.5833 64.1959 20.8634H63.5656C63.5656 20.7233 63.4256 20.5833 63.0754 20.5833C62.7953 20.5833 62.6552 20.6533 62.6552 20.8634C62.6552 21.0034 62.7253 21.0735 63.2155 21.1435C64.1259 21.2836 64.3359 21.5637 64.3359 21.9838C64.3359 22.404 63.9858 22.7542 63.1455 22.7542C62.3751 22.7542 62.025 22.404 61.955 21.9838H62.4452Z" fill="white"/>
<path d="M66.8341 16.5931H66.2739V16.313H67.7445V16.5931H67.1842V17.9237H66.8341V16.5931ZM67.8845 16.313H68.4448L68.7949 17.5035L69.1451 16.313H69.7053V17.9237H69.3551V16.5231L68.935 17.9237H68.6549L68.2347 16.5231V17.9237H67.8845V16.313Z" fill="white"/>
</svg>
